HIERARCHY
ROOT SimulationBone
{
	OFFSET 0.000000 0.000000 0.000000
	CHANNELS 6 Xposition Yposition Zposition Zrotation Yrotation Xrotation 
	JOINT Hips
	{
		OFFSET 0.000000 0.000000 0.000000
		CHANNELS 6 Xposition Yposition Zposition Zrotation Yrotation Xrotation 
		JOINT RightUpLeg
		{
			OFFSET 0.103462 1.857831 10.548496
			CHANNELS 3 Zrotation Yrotation Xrotation
			JOINT RightLeg
			{
				OFFSET 43.500000 -0.000038 -0.000010
				CHANNELS 3 Zrotation Yrotation Xrotation
				JOINT RightFoot
				{
					OFFSET 42.372192 0.000011 0.000010
					CHANNELS 3 Zrotation Yrotation Xrotation
					JOINT RightToe
					{
						OFFSET 17.299999 0.000001 -0.000001
						CHANNELS 3 Zrotation Yrotation Xrotation
						End Site
						{
							OFFSET 0.000000 0.000000 0.000000
						}
					}
				}
			}
		}
		JOINT LeftUpLeg
		{
			OFFSET 0.103456 1.857825 -10.548502
			CHANNELS 3 Zrotation Yrotation Xrotation
			JOINT LeftLeg
			{
				OFFSET 43.500038 -0.000023 0.000011
				CHANNELS 3 Zrotation Yrotation Xrotation
				JOINT LeftFoot
				{
					OFFSET 42.372261 -0.000008 0.000011
					CHANNELS 3 Zrotation Yrotation Xrotation
					JOINT LeftToe
					{
						OFFSET 17.299994 -0.000004 0.000002
						CHANNELS 3 Zrotation Yrotation Xrotation
						End Site
						{
							OFFSET 0.000000 0.000000 0.000000
						}
					}
				}
			}
		}
		JOINT Spine
		{
			OFFSET 6.901965 -2.603729 -0.000002
			CHANNELS 3 Zrotation Yrotation Xrotation
			JOINT Spine1
			{
				OFFSET 12.588101 -0.000004 0.000003
				CHANNELS 3 Zrotation Yrotation Xrotation
				JOINT Spine2
				{
					OFFSET 12.343205 0.000006 0.000001
					CHANNELS 3 Zrotation Yrotation Xrotation
					JOINT Neck
					{
						OFFSET 25.832897 -0.000008 -0.000001
						CHANNELS 3 Zrotation Yrotation Xrotation
						JOINT Head
						{
							OFFSET 11.766601 0.000009 -0.000008
							CHANNELS 3 Zrotation Yrotation Xrotation
							End Site
							{
								OFFSET 0.000000 0.000000 0.000000
							}
						}
					}
					JOINT RightShoulder
					{
						OFFSET 19.745893 -1.480370 6.000097
						CHANNELS 3 Zrotation Yrotation Xrotation
						JOINT RightArm
						{
							OFFSET 11.284136 -0.000006 -0.000021
							CHANNELS 3 Zrotation Yrotation Xrotation
							JOINT RightForeArm
							{
								OFFSET 33.000042 0.000005 0.000030
								CHANNELS 3 Zrotation Yrotation Xrotation
								JOINT RightHand
								{
									OFFSET 25.200008 0.000013 0.000010
									CHANNELS 3 Zrotation Yrotation Xrotation
									End Site
									{
										OFFSET 0.000000 0.000000 0.000000
									}
								}
							}
						}
					}
					JOINT LeftShoulder
					{
						OFFSET 19.746088 -1.480379 -6.000076
						CHANNELS 3 Zrotation Yrotation Xrotation
						JOINT LeftArm
						{
							OFFSET 11.284133 -0.000016 -0.000013
							CHANNELS 3 Zrotation Yrotation Xrotation
							JOINT LeftForeArm
							{
								OFFSET 33.000095 0.000019 0.000001
								CHANNELS 3 Zrotation Yrotation Xrotation
								JOINT LeftHand
								{
									OFFSET 25.199785 0.000138 0.000422
									CHANNELS 3 Zrotation Yrotation Xrotation
									End Site
									{
										OFFSET 0.000000 0.000000 0.000000
									}
								}
							}
						}
					}
				}
			}
		}
	}
}
MOTION
Frames: 10
Frame Time: 0.033333
120.819546 0.000000 17.996558 180.000000 83.649760 180.000000 5.192204 88.969978 -0.194649 103.505497 2.411018 174.379500 -178.309711 -3.269603 169.434413 -65.725981 0.826928 -0.653705 75.293410 -1.783877 -7.533114 21.454563 0.003100 0.000021 169.429276 -1.461602 177.024215 -29.697338 2.859559 1.060508 68.896951 -1.490002 -1.806502 21.454550 -0.003095 -0.000001 7.542952 1.553830 -1.783871 5.026350 3.183139 -3.500362 4.708377 3.161812 -3.519499 -15.600289 11.106524 7.031435 -10.232494 -15.270037 15.027345 -160.307408 -75.148391 -21.588283 12.825563 50.095616 32.227623 -99.132054 -1.139516 2.835413 -9.951123 -2.966261 39.093930 -158.404463 71.480348 23.640094 21.346141 -53.213707 -37.991612 -106.941009 1.286706 -3.145320 -5.305489 5.370812 -45.156911 
121.406445 0.000000 21.358632 180.000000 82.172681 180.000000 5.921245 89.094711 -0.181330 103.312063 1.847895 175.284937 -175.143727 -1.833889 173.808220 -58.634824 0.001400 -0.016414 73.719789 -2.127629 -6.901930 21.454555 0.003109 0.000014 169.036500 -0.697699 177.906839 -26.996324 2.594629 1.936492 66.438855 -2.004013 -1.357853 21.454553 -0.003086 0.000001 7.216897 1.209598 -1.966776 4.379700 2.492117 -3.887690 4.062086 2.468464 -3.902655 -17.411682 9.122482 6.782184 -8.360298 -14.111702 13.656979 -161.340994 -75.677212 -20.524119 6.585830 47.737159 29.020548 -98.052953 -1.404097 2.805582 -7.422439 0.274589 38.260742 -156.353849 71.963392 25.739679 30.753248 -52.993075 -43.922010 -107.665911 1.186004 -3.169879 -3.679239 5.248128 -44.248831 
121.920038 0.000000 24.818191 180.000000 80.880928 180.000000 6.313359 88.786697 -0.177698 103.275326 1.322037 176.471003 -173.023336 -0.375398 178.929373 -52.308997 -0.194941 0.358481 77.692295 -1.845385 -5.891371 21.454553 0.003116 0.000017 167.830179 0.264888 179.156613 -25.644155 2.397622 2.563272 64.248516 -2.357086 -0.999980 21.454555 -0.003100 -0.000002 7.101156 0.827686 -2.031796 4.159554 1.727129 -4.033294 3.842153 1.702644 -4.043627 -19.375140 7.203560 6.610129 -6.909396 -12.598454 12.339014 -162.605999 -75.934526 -19.228209 -2.471871 45.055394 24.030798 -96.138656 -1.953761 2.758220 -4.021614 3.792440 38.161961 -156.032612 72.667516 26.054884 38.158173 -53.025764 -47.714534 -108.406509 1.106822 -3.196540 -0.530338 4.319092 -46.385211 
122.364054 0.000000 28.372147 180.000000 79.765949 180.000000 6.326947 88.184021 -0.177068 103.119309 0.777300 177.807622 -172.503790 0.965606 -175.958077 -47.322877 -0.441310 -0.006285 81.170132 -0.268703 -1.239432 21.454555 0.003111 0.000015 165.962860 1.483105 -179.114785 -24.765728 2.188265 2.809708 61.850887 -2.511830 -0.848497 21.454551 -0.003092 0.000000 7.112217 0.423083 -1.998398 4.195806 0.917632 -3.980412 3.878517 0.893458 -3.985874 -20.664667 5.532856 6.323868 -6.521325 -11.502071 11.190395 -165.822199 -75.966457 -15.941110 -12.575117 42.058013 18.095813 -93.325369 -2.809216 2.691964 0.157581 8.747751 40.153374 -156.549015 73.440468 25.508959 41.741294 -53.533312 -49.149908 -109.124402 1.185874 -3.233136 4.959719 2.732807 -52.321896 
122.742220 0.000000 32.017412 180.000000 78.818943 180.000000 5.956423 87.373840 -0.234663 102.631948 -0.191884 179.297390 -174.190902 2.305690 -172.721113 -45.488988 -1.137684 -1.303142 86.092602 1.230807 1.494386 21.454557 0.003121 0.000018 163.412016 3.546090 -176.480094 -24.066928 1.946838 2.450028 59.195043 -2.289484 -0.864937 21.454550 -0.003085 0.000000 7.227068 -0.100540 -1.922620 4.443470 -0.127823 -3.847655 4.126148 -0.151180 -3.846816 -22.123063 4.745451 5.794006 -6.199993 -10.881639 10.239018 -171.078576 -76.241372 -10.569804 -22.403253 39.021602 13.770023 -89.896511 -5.449641 2.723274 4.012414 12.834231 44.319028 -158.301286 73.827228 23.705024 40.459568 -54.526862 -46.833453 -109.432703 1.324154 -3.256083 12.000291 -0.744715 -61.863291 
123.058265 0.000000 35.750897 180.000000 78.031150 180.000000 5.370477 86.511063 -0.318152 102.344599 -1.691792 -179.098596 -177.540823 3.779293 -172.896062 -46.503630 -0.998329 -1.094792 90.442455 1.276994 3.210957 21.454560 0.003104 0.000015 161.250890 6.452399 -172.388948 -22.935553 1.148769 1.101302 56.844997 -0.695739 0.429724 21.454553 -0.003091 0.000001 7.602561 -0.713077 -1.896724 5.215034 -1.340457 -3.823684 4.897614 -1.363642 -3.815546 -23.790179 3.693444 5.367872 -6.682632 -10.034440 9.303150 -176.562603 -76.433642 -4.970107 -31.032743 36.165660 9.578488 -87.009035 -7.856090 2.763140 6.019174 13.209197 49.986890 -160.728285 74.500650 21.207707 34.493719 -55.929226 -41.490831 -110.305602 1.704135 -3.320164 20.159981 -5.854960 -78.619377 
123.315917 0.000000 39.569516 180.000000 77.394043 180.000000 4.654511 85.559692 -0.302896 102.600423 -2.900339 -177.256015 178.114641 4.766798 -173.132523 -49.675071 -0.840304 0.545226 92.717393 0.108251 3.355152 21.454558 0.003098 0.000018 159.314217 9.217414 -170.473080 -22.932948 0.662330 1.369686 58.118681 1.368756 5.349071 21.454551 -0.003100 -0.000001 8.275230 -1.217539 -1.893237 6.578129 -2.325797 -3.853150 6.260523 -2.349144 -3.839073 -24.868656 2.248178 4.882445 -8.156483 -8.765445 8.085786 177.050128 -76.772057 1.543364 -37.479198 33.984443 4.722526 -85.972390 -8.875440 2.788586 5.440845 11.098405 55.523202 -164.918100 75.514353 16.909113 25.585270 -56.639129 -34.686320 -111.325287 1.895111 -3.377229 26.160273 -8.067175 -90.374871 
123.518905 0.000000 43.470179 180.000000 76.899452 180.000000 4.072422 84.516747 -0.105286 103.586452 -3.174391 -175.412949 173.599804 4.929091 -172.622089 -54.187019 -1.703802 1.697102 92.735295 -0.525848 4.299060 21.454560 0.003102 0.000017 157.473754 10.755087 -169.345415 -25.382731 -0.224854 3.650728 62.490815 0.697374 8.345853 21.454551 -0.003092 0.000000 9.216295 -1.443713 -1.757696 8.465763 -2.755030 -3.617264 8.147961 -2.776950 -3.600585 -24.519006 0.924926 4.246478 -11.491355 -7.429871 6.834014 169.991128 -77.318547 8.724201 -42.501327 32.618835 -1.133021 -86.280159 -8.846254 2.800232 2.083785 8.503371 54.314187 -172.895092 76.632195 8.757010 17.242497 -55.844016 -27.626618 -112.359699 1.766280 -3.412396 26.846497 -8.696095 -91.265206 
123.670955 0.000000 47.449801 180.000000 76.539624 180.000000 3.743902 83.738037 0.124749 104.865273 -2.385949 -174.571333 170.211155 4.000597 -173.441548 -57.185981 -2.151701 2.796447 92.283430 -1.094523 5.391117 21.454562 0.003103 0.000015 154.663855 10.744796 -169.912963 -33.911479 -1.036712 9.054419 64.736847 -2.016210 12.090663 21.454553 -0.003093 -0.000002 10.055679 -1.299297 -1.389417 10.132072 -2.471814 -2.887923 9.814114 -2.489340 -2.872970 -22.116002 -2.020887 4.130945 -14.949401 -5.374870 5.182030 166.111498 -76.939048 12.689202 -45.469648 32.215106 -6.654557 -87.813768 -7.690491 2.787374 -1.610494 5.827740 48.485245 173.481996 78.603518 -5.093026 11.273571 -54.480246 -21.791753 -113.365895 1.658321 -3.447606 21.884920 -8.561203 -88.889216 
123.775797 0.000000 51.505291 180.000000 76.307246 180.000000 3.844885 83.257446 0.228132 105.809958 -2.055908 -174.702194 168.643777 4.015789 -174.893974 -57.052495 -1.666464 3.310233 93.075807 -1.475568 5.512963 21.454562 0.003103 0.000017 152.056349 11.492405 -171.330214 -47.309606 -0.318425 10.906462 67.922652 -4.090828 10.939358 21.454555 -0.003093 -0.000001 10.477133 -1.209522 -0.980047 10.964689 -2.320580 -2.070762 10.646525 -2.333161 -2.056714 -19.404585 -2.876627 3.807086 -15.061394 -6.347804 4.975704 168.648326 -76.732633 10.111888 -45.940238 34.222468 -11.022268 -91.248882 -5.193768 2.765795 -4.165174 3.672985 43.895843 161.423202 80.170684 -17.278895 5.181316 -52.214303 -17.302042 -114.042398 1.460302 -3.462404 15.079145 -7.643398 -84.714351 
